<?xml version="1.0" encoding="UTF-8"?>
<svg id="Layer_2" data-name="Layer 2" xmlns="http://www.w3.org/2000/svg" xmlns:xlink="http://www.w3.org/1999/xlink" viewBox="0 0 720.02 632.5">
  <defs>
    <style>
      .cls-1 {
        fill: url(#linear-gradient);
      }

      .cls-1, .cls-2, .cls-3, .cls-4, .cls-5, .cls-6, .cls-7, .cls-8, .cls-9, .cls-10, .cls-11, .cls-12, .cls-13, .cls-14, .cls-15, .cls-16, .cls-17, .cls-18, .cls-19, .cls-20, .cls-21, .cls-22 {
        stroke-width: 0px;
      }

      .cls-2 {
        fill: url(#linear-gradient-11);
      }

      .cls-3 {
        fill: url(#linear-gradient-12);
      }

      .cls-4 {
        fill: url(#linear-gradient-13);
      }

      .cls-5 {
        fill: url(#linear-gradient-10);
      }

      .cls-6 {
        fill: url(#linear-gradient-17);
      }

      .cls-7 {
        fill: url(#linear-gradient-16);
      }

      .cls-8 {
        fill: url(#linear-gradient-19);
      }

      .cls-9 {
        fill: url(#linear-gradient-15);
      }

      .cls-10 {
        fill: url(#linear-gradient-18);
      }

      .cls-11 {
        fill: url(#linear-gradient-14);
      }

      .cls-23 {
        fill: #412312;
        font-family: Arial-Black, 'Arial Black';
        font-size: 89.6px;
        font-weight: 800;
      }

      .cls-12 {
        fill: url(#linear-gradient-4);
      }

      .cls-13 {
        fill: url(#linear-gradient-2);
      }

      .cls-14 {
        fill: url(#linear-gradient-3);
      }

      .cls-15 {
        fill: url(#linear-gradient-8);
      }

      .cls-16 {
        fill: url(#linear-gradient-9);
      }

      .cls-17 {
        fill: url(#linear-gradient-7);
      }

      .cls-18 {
        fill: url(#linear-gradient-5);
      }

      .cls-19 {
        fill: url(#linear-gradient-6);
      }

      .cls-20 {
        fill: #853b1c;
      }

      .cls-21 {
        fill: #ffe5c3;
      }

      .cls-22 {
        fill: #ffd738;
      }
    </style>
    <linearGradient id="linear-gradient" x1="370.31" y1="465.88" x2="367.97" y2="541.94" gradientUnits="userSpaceOnUse">
      <stop offset="0" stop-color="#fec34e"/>
      <stop offset="1" stop-color="#11191b"/>
    </linearGradient>
    <linearGradient id="linear-gradient-2" x1="280.11" y1="412.37" x2="227.81" y2="456.36" gradientUnits="userSpaceOnUse">
      <stop offset="0" stop-color="#fcb431"/>
      <stop offset="1" stop-color="#13181c"/>
    </linearGradient>
    <linearGradient id="linear-gradient-3" x1="330.71" y1="207.38" x2="345.98" y2="276.8" gradientUnits="userSpaceOnUse">
      <stop offset="0" stop-color="#19181e"/>
      <stop offset=".42" stop-color="#be6628"/>
      <stop offset="1" stop-color="#f9b31d"/>
    </linearGradient>
    <linearGradient id="linear-gradient-4" x1="485.54" y1="358.6" x2="554.17" y2="377.12" gradientUnits="userSpaceOnUse">
      <stop offset="0" stop-color="#fdb732"/>
      <stop offset="1" stop-color="#101519"/>
    </linearGradient>
    <linearGradient id="linear-gradient-5" x1="258.63" y1="249.91" x2="307.21" y2="297.99" gradientUnits="userSpaceOnUse">
      <stop offset="0" stop-color="#191a20"/>
      <stop offset="1" stop-color="#f9ad27"/>
    </linearGradient>
    <linearGradient id="linear-gradient-6" x1="414.73" y1="203.51" x2="398.87" y2="273.74" gradientUnits="userSpaceOnUse">
      <stop offset="0" stop-color="#17171c"/>
      <stop offset=".4" stop-color="#c36a28"/>
      <stop offset="1" stop-color="#fdb82b"/>
    </linearGradient>
    <linearGradient id="linear-gradient-7" x1="550.13" y1="327.23" x2="472.22" y2="327.45" gradientUnits="userSpaceOnUse">
      <stop offset="0" stop-color="#11191d"/>
      <stop offset="1" stop-color="#fdb632"/>
    </linearGradient>
    <linearGradient id="linear-gradient-8" x1="517.97" y1="267.57" x2="451.45" y2="298.51" gradientUnits="userSpaceOnUse">
      <stop offset="0" stop-color="#161b1e"/>
      <stop offset="1" stop-color="#fdb733"/>
    </linearGradient>
    <linearGradient id="linear-gradient-9" x1="477.52" y1="229.74" x2="424.37" y2="275.55" gradientUnits="userSpaceOnUse">
      <stop offset="0" stop-color="#17191d"/>
      <stop offset="1" stop-color="#fcb12a"/>
    </linearGradient>
    <linearGradient id="linear-gradient-10" x1="274.08" y1="356.96" x2="204.1" y2="362.01" gradientUnits="userSpaceOnUse">
      <stop offset="0" stop-color="#fcb435"/>
      <stop offset="1" stop-color="#121419"/>
    </linearGradient>
    <linearGradient id="linear-gradient-11" x1="455.87" y1="443.96" x2="509.06" y2="482.37" gradientUnits="userSpaceOnUse">
      <stop offset="0" stop-color="#fdb84c"/>
      <stop offset="1" stop-color="#14181b"/>
    </linearGradient>
    <linearGradient id="linear-gradient-12" x1="221.07" y1="298.61" x2="287.69" y2="315.79" gradientUnits="userSpaceOnUse">
      <stop offset="0" stop-color="#191d22"/>
      <stop offset="1" stop-color="#f4a620"/>
    </linearGradient>
    <linearGradient id="linear-gradient-13" x1="434.33" y1="461.67" x2="479.7" y2="508.43" gradientUnits="userSpaceOnUse">
      <stop offset="0" stop-color="#fcb747"/>
      <stop offset="1" stop-color="#161d22"/>
    </linearGradient>
    <linearGradient id="linear-gradient-14" x1="304.3" y1="449.89" x2="268.46" y2="501" gradientUnits="userSpaceOnUse">
      <stop offset="0" stop-color="#fdb62f"/>
      <stop offset="1" stop-color="#13191d"/>
    </linearGradient>
    <linearGradient id="linear-gradient-15" x1="421.3" y1="467.67" x2="455.93" y2="522.32" gradientUnits="userSpaceOnUse">
      <stop offset="0" stop-color="#fdbc3f"/>
      <stop offset="1" stop-color="#1b2127"/>
    </linearGradient>
    <linearGradient id="linear-gradient-16" x1="210.21" y1="330.27" x2="277.53" y2="334.27" gradientUnits="userSpaceOnUse">
      <stop offset="0" stop-color="#12171b"/>
      <stop offset="1" stop-color="#fbae2c"/>
    </linearGradient>
    <linearGradient id="linear-gradient-17" x1="471.05" y1="424.47" x2="527.43" y2="455.27" gradientUnits="userSpaceOnUse">
      <stop offset="0" stop-color="#fcb43e"/>
      <stop offset="1" stop-color="#14181c"/>
    </linearGradient>
    <linearGradient id="linear-gradient-18" x1="266.77" y1="383.06" x2="207.16" y2="396.31" gradientUnits="userSpaceOnUse">
      <stop offset="0" stop-color="#f9a520"/>
      <stop offset="1" stop-color="#121418"/>
    </linearGradient>
    <linearGradient id="linear-gradient-19" x1="406.53" y1="473.94" x2="434.48" y2="531.79" gradientUnits="userSpaceOnUse">
      <stop offset="0" stop-color="#fdbb47"/>
      <stop offset="1" stop-color="#191f24"/>
    </linearGradient>
  </defs>
  <g id="Layer_4" data-name="Layer 4">
    <g>
      <text class="cls-23" transform="translate(139.44 395.09) rotate(-86.02) scale(.62 1)"><tspan x="0" y="0">T</tspan></text>
      <text class="cls-23" transform="translate(141.72 356.42) rotate(-76.05) scale(.62 1)"><tspan x="0" y="0">H</tspan></text>
      <text class="cls-23" transform="translate(152.67 312.87) rotate(-66.15) scale(.62 1)"><tspan x="0" y="0">E</tspan></text>
      <text class="cls-23" transform="translate(169.15 277.03) rotate(-59.39) scale(.62 1)"><tspan x="0" y="0"> </tspan></text>
      <text class="cls-23" transform="translate(177.62 261.36) rotate(-52.62) scale(.62 1)"><tspan x="0" y="0">P</tspan></text>
      <text class="cls-23" transform="translate(201.13 230.38) rotate(-43.4) scale(.62 1)"><tspan x="0" y="0">E</tspan></text>
      <text class="cls-23" transform="translate(229 203.46) rotate(-33.41) scale(.62 1)"><tspan x="0" y="0">N</tspan></text>
      <text class="cls-23" transform="translate(266.25 178.68) rotate(-22.75) scale(.62 1)"><tspan x="0" y="0">N</tspan></text>
      <text class="cls-23" transform="translate(307.62 161.33) rotate(-12.59) scale(.62 1)"><tspan x="0" y="0">Y</tspan></text>
      <text class="cls-23" transform="translate(349.23 152.76) rotate(-5.45) scale(.62 1)"><tspan x="0" y="0"> </tspan></text>
      <text class="cls-23" transform="translate(366.77 150.24) rotate(1.74) scale(.62 1)"><tspan x="0" y="0">B</tspan></text>
      <text class="cls-23" transform="translate(407.15 151.06) rotate(11.74) scale(.62 1)"><tspan x="0" y="0">U</tspan></text>
      <text class="cls-23" transform="translate(451.08 160.33) rotate(21.66) scale(.62 1)"><tspan x="0" y="0">S</tspan></text>
      <text class="cls-23" transform="translate(487.53 175.44) rotate(28.43) scale(.62 1)"><tspan x="0" y="0"> </tspan></text>
      <text class="cls-23" transform="translate(503.52 183.31) rotate(35.19) scale(.62 1)"><tspan x="0" y="0">P</tspan></text>
      <text class="cls-23" transform="translate(535.38 205.46) rotate(44.75) scale(.62 1)"><tspan x="0" y="0">R</tspan></text>
      <text class="cls-23" transform="translate(564.66 233.95) rotate(54.85) scale(.62 1)"><tspan x="0" y="0">O</tspan></text>
      <text class="cls-23" transform="translate(590.33 270.86) rotate(64.49) scale(.62 1)"><tspan x="0" y="0">J</tspan></text>
      <text class="cls-23" transform="translate(605.95 303.09) rotate(73.32) scale(.62 1)"><tspan x="0" y="0">E</tspan></text>
      <text class="cls-23" transform="translate(617.39 340.31) rotate(82.83) scale(.62 1)"><tspan x="0" y="0">C</tspan></text>
      <text class="cls-23" transform="translate(622.62 381.86) rotate(92.46) scale(.62 1)"><tspan x="0" y="0">T</tspan></text>
      <g>
        <path class="cls-22" d="M373.03,169.01c31.13-.95,64.75,6.88,92.95,20.05,45.89,21.42,82.61,61.57,100.93,108.67,22.81,58.67,17.58,121.52-15.04,175.42-26.14,43.19-73.29,78.18-121.43,92.72-66.93,20.22-137.56-3.42-188.18-49.21-19.25-17.41-35.82-38.53-46.7-62.2-6.47-14.07-15.01-40.95-17.31-56.04-9.94-65.19,18.03-134.65,66.75-178.38,33.09-29.7,83.75-49.67,128.04-51.03Z"/>
        <g>
          <path class="cls-1" d="M345.92,467.46c-2.25,15.58-17.67,58.49-19.14,66.75-.2,1.13-.85,4.03,1.14,3.42,1.46-.45,8.78-25.56,9.8-28.93,4.02-13.31,7.08-26.96,10.94-40.32,1.81.65,3.78,1.16,5.7,1.37l.68,1.14c-2.1,11.8-3.4,23.74-5.47,35.54-1.38,7.85-9.98,40.89-4.56,31.9,5.42-22.14,9.73-44.52,13.67-66.98.54-.49,7.49.17,7.75.91q-4.1,34.63-8.2,69.26c6.68-22.6,8.22-46.47,12.53-69.49,2.19.1,4.39.48,6.61.68.35,9.68-2.16,67.18-1.37,70.62.38,1.64,1.82,1.48,2.28,0,1.05-3.38,2.66-60.98,3.65-70.62l7.52-.68c4.07,14.89,8.4,58.99,10.71,67.66.28,1.07,1.31,4.28,2.73,2.28,1.04-1.46-3.5-31.25-4.1-35.54-1.61-11.42-4.06-22.79-5.92-34.17l.68-1.14c1.67.15,8-1.96,8.89-1.14,3.85,14.65,7.92,29.38,12.76,43.74,1.36,4.04,7.67,23.23,9.57,24.83.07.06-.18.79.23.91,7.95-1.03,15.21-5.05,22.55-8.2.17-.07,3.54-1.07,3.65-.46-55.26,25.15-113.31,22.18-164.94-10.02-1.26-3.34.54-1.64,1.37-2.73,10.66-14.1,27.21-43.41,37.36-59.69.26.16.64-.48.68-.46,1.56.94,8.37,4.61,8.43,5.24-7.72,22.28-18.87,43.32-25.74,65.84,11.24-20.83,19.92-42.9,28.48-64.93.44-.35,7.83,2.96,9.11,3.42Z"/>
          <path class="cls-13" d="M279.4,394.56c.26,2.13,2.46,5.76.46,7.29-3.31,2.41-52.94,15.94-61.74,19.14-8.47,3.08-6.63,4.64,4.56,1.82,19.75-4.98,38.85-13,58.55-18.23.57,1.59,4.19,8.31,3.42,9.57q-32.24,14.47-64.47,28.93c.5,2.77,1.44,1.75,5.7.23,15.83-5.66,42.4-20.78,60.14-26.88l3.87,7.06c-5.7,4.66-59.34,33.02-58.78,36.45.21,1.28,1.69.92,2.51.68,3.22-.94,46.96-30.83,57.41-34.63l6.15,8.43c-12.17,10.57-25.1,20.41-36,32.35,1.05,2.19,34.77-28.8,37.13-30.76l10.25,10.25c-16.51,17-33.09,34.05-47.84,52.63l-1.14.91q-6.49-6.38-12.99-12.76c-20.17-22.92-35.43-50.65-41.92-80.65,1.94-3.83.57.08,2.73.46,3.6.63,62.38-11.85,71.99-12.3Z"/>
          <path class="cls-14" d="M376.91,196.81c-.2.66-.06,1.62,0,2.28l-2.05,75.64c-2.38-.46-7.89,1.89-8.89-.68q-5.24-36.45-10.48-72.9c-.23-.27-1.34.38-1.37.46-1.48,3.7,7.92,58.45,8.66,67.89.09,1.21.77,5.93-.23,6.61l-7.29,1.37-1.14-.68q-9.11-35.77-18.23-71.54c3.59,24.34,9.74,48.22,15.95,71.99l-.23,1.14-10.71,2.73c-8.54-23.51-16.24-47.4-26.66-70.17l-1.14,1.14c8.74,23.17,16.71,46.63,25.06,69.94-.07.04.22.87-.68,1.37-1.8.98-8.9,3.4-9.34,3.65-8.69-11.47-34.13-55.47-39.19-61.28-1.29-1.49-1.74-1.07-1.82-1.14-.97-.85-1.66-.03-1.37-2.28,28.28-17.44,58.09-24.54,91.13-25.52Z"/>
          <path class="cls-12" d="M538.21,447.41c-1.65-1.56-1.68-.37-2.73-.46,1.9-1.85,0-2.31-1.59-3.19-2.41-1.31-33.42-14.34-44.43-19.59-6.35-3.03-12.86-5.71-19.14-8.89l3.19-9.11c8.33.85,66.18,22.24,69.49,20.73.3-.14.54-1.63,1.14-2.05-23.16-7.44-47.43-13.09-69.71-22.33l2.51-7.52c16.52,3.66,52.81,11.55,67.44,12.76,3.84.32,5.49,1.08,5.24-2.05-24.06-4.64-48.43-7.45-72.22-13.44l.91-8.66,44.88,2.05c-.04-.38.18-.9-.23-1.14-1.91-1.13-38.58-3.26-44.2-4.1v-11.85c11.55-1.35,70.26-3.99,73.81-5.01.4-.12.64-.88.68-.91,3.61-2.83-.66-24.51-1.82-29.84-.83-3.8-4.97-17.71-6.38-21.42-1.67-4.39-6.82-12.43-5.01-12.99,22.91,48.89,20.79,100.52-1.82,149Z"/>
          <path class="cls-18" d="M287.15,224.6c-1.27.43-.85,1.09-.46,2.05,2.23,5.38,32.65,51.05,38.73,62.2-4.04,2.42-9.63,6.5-13.21,9.57q-25.17-26.88-50.35-53.77l-2.05,1.59q25.29,27,50.58,53.99c-2.42,2.15-6.54,7.7-7.06,7.75-11.96-7.72-47.98-40.61-54.68-44.65-1.46-.88-2.14-2.14-3.42-.23,18.4,15.99,37.02,31.82,56.5,46.48l-6.61,8.43c-18.88-11.15-44.2-30.75-62.2-40.55-.35-.19-.56-.29-.91-.46-.37-.18-.61,1.29-1.37-.91,14.36-21.69,32.99-40.11,55.13-53.77-.29,2.25.4,1.43,1.37,2.28Z"/>
          <path class="cls-19" d="M452.09,212.3c-.77,1.93-.9-1.35-1.37.91-1.7.55-5.2,8.42-6.83,12.07-8.67,19.31-15.79,39.38-23.69,59.01-1.2-.63-7.72-2.77-7.97-3.19l-.23-1.14c3.82-17.1,14.33-52.35,16.86-66.52.82-4.6,1.38-11.19-1.37-4.1-3.32,8.57-13.33,54.05-17.77,68.35l-1.59,2.05-7.52-2.51c2.15-8.72,13.27-71.87,11.39-75.18h-.91c-1.64,10.48-11.42,69.45-12.76,72.9-1.2,3.07-7.95.75-8.2-.46q2.73-37.13,5.47-74.27c-1.47-.76-1.9,0-2.28,1.37-.99,3.56-4.4,61.64-7.06,73.59-2.62-.47-5.33-.33-7.97-.68-1.58-22.6.68-54.59-1.37-75.41-.06-.66-.2-1.62,0-2.28,30.87-.91,47.43,2.65,75.18,15.49Z"/>
          <path class="cls-17" d="M537.29,292.95c.93,1.8,1.87,3.63,2.73,5.47-1.81.56,3.34,8.59,5.01,12.99,1.41,3.7,5.55,17.61,6.38,21.42,1.17,5.33,5.43,27.02,1.82,29.84-.28-3.1-2.29-2.41-6.61-2.28-14.36.43-32.79,3.39-47.84,4.1-6.81.32-13.69.37-20.5.46-.78-3.32-1-12.57-1.14-13.21,8.78-2.15,68.76-13.38,71.76-15.49,1.25-.88,1.26-3.3-1.82-3.19-3.63.13-60.19,14.76-70.85,16.4-1.12-2.82-3.65-7.89-2.73-10.48q34.29-12.53,68.57-25.06c1.48-1.28.24-3.14-1.37-3.19-3.67-.11-59.86,23.67-68.57,26.43-1.54-3.68-6.52-9.95-5.92-12.3,22.97-9.88,44.37-23.17,66.98-33.72,1.02-.48.98-1.37,1.14-1.37.82,0,1.1,3.82,2.96,3.19Z"/>
          <path class="cls-15" d="M501.75,246.47c15.51,14.85,25.59,27.19,35.54,46.48-1.86.63-2.14-3.19-2.96-3.19-.16,0-.12.89-1.14,1.37-1.44-2.98-1.93-1.98-4.78-.91-8.75,3.29-49.29,27.12-64.02,32.81-.78-1.18-5.1-7.16-5.92-8.2l62.65-40.55c1.13-.62.2-1.15-.91-2.73q-31.78,20.73-63.56,41.46c-3.35-4.01-7.08-8.33-10.94-11.85,11.27-12.48,22.27-25.28,33.72-37.59,2.33-2.51,18.09-16.94,18.23-18.23.09-.88-1.21-1.27-1.37-2.05,2.55-.98,2.88,2.77,5.47,3.19Z"/>
          <path class="cls-16" d="M452.09,212.3c20.98,9.71,32.98,18.2,49.67,34.17-2.58-.42-2.91-4.17-5.47-3.19-4.39,1.68-45.72,48.57-52.85,56.04-2.24-1.9-8.44-6.89-10.48-8.2,10.84-20.7,24.16-40.09,34.4-61.06-13.77,19.04-25.53,39.48-36.68,60.14-2.66-1.62-5.46-3.07-8.2-4.56,5.31-12.86,9.84-26.05,15.04-38.96,3.46-8.59,11.25-24.67,13.21-30.53.79-2.35-.03-2.82,0-2.96.46-2.26.6,1.02,1.37-.91Z"/>
          <path class="cls-5" d="M206.5,338.97c3.32,1.78,64.22,11.13,73.81,14.81q-1.03,5.81-2.05,11.62-36.91-2.51-73.81-5.01c-.14.74-.9,1.96-.68,2.51.6,1.51,26.69,1.82,30.3,2.05,14.81.96,29.63,2.23,44.43,3.42l-.68,11.62c-6.72.73-51.4,2.81-53.77,4.1-.45.24-.16,1.32-.23,1.82-7.29.34-14.57,1.03-21.87.91-1.39-16.92-.78-33.48,2.73-50.12,2.22-.53,1.15,1.92,1.82,2.28Z"/>
          <path class="cls-2" d="M524.54,467c.09.06-.64.74,1.82,1.37-7.79,11.55-17,21.28-27.34,30.53-1.43-.98-.45,1.63-3.19.46,1.79-1.96,1.23-1.54-.46-3.87-4.46-6.16-39.5-39.8-47.84-50.35,2.76-2.52,5.71-4.96,8.2-7.75,17.91,15.12,35,31.83,55.13,43.97q-26.88-22.67-53.77-45.34c2.12-2.48,4.51-5.53,6.38-8.2,14.23,8.74,27.64,18.79,41.69,27.79,5.82,3.73,14.9,8.4,19.36,11.39Z"/>
          <path class="cls-3" d="M232.01,277c-.03.29.07.68,0,.91-.34,1.17-.97.51.68,2.28,2.45,2.63,52.92,33.58,60.6,38.73l.68,1.59-5.01,7.97c-18.15-8.46-35.41-18.85-53.54-27.34-2.16-1.01-12.36-6.11-12.99-5.24-.96,1.33,0,1.65,1.14,2.51,2.85,2.15,55.18,26.82,64.02,31.44-.15.3.71.63.46,1.14-1.45,2.92-2.89,5.77-3.87,8.89-18.17-6.56-48.13-19.47-65.38-24.15,1.2-.66-4.85-1.97-5.24-1.82-.23.09-1.1,1.76-2.51,1.82,5.27-14.95,10.83-26.41,19.59-39.64.76,2.21.99.73,1.37.91Z"/>
          <path class="cls-4" d="M495.83,499.36c2.74,1.17,1.76-1.43,3.19-.46-10.32,9.23-21.23,17.72-33.26,24.6-.36-1.65,3.17-2.31,3.19-2.96.04-1.11-.76-.26-1.37-1.14,3.4-.28,1.84-1.62-1.82-7.52-10.11-16.27-26.76-36.17-37.36-53.08,6.42-3.57,11.65-6.53,17.31-11.39,7.02,6.06,46.8,50.52,50.12,51.94Z"/>
          <path class="cls-11" d="M322.69,456.98c-6.24,12.85-32.29,50.16-35.54,57.18-.68,1.48-2.56,4.13.46,3.87-.83,1.09-2.62-.61-1.37,2.73-14.79-9.22-28.14-20.65-39.64-33.72q6.49,6.38,12.99,12.76l1.14-.91c2.14,1.88,2.96-.86,5.47-2.96l43.97-48.07c.87-.11,10.85,8.04,12.53,9.11Z"/>
          <path class="cls-9" d="M426.57,460.63c13.1,19.99,27.45,39.11,41.01,58.78.61.88,1.41.03,1.37,1.14-.02.65-3.55,1.31-3.19,2.96-4.74,2.71-9.62,5.03-14.58,7.29-.1-.62-3.48.38-3.65.46-.56.02-.52-.45-.46-.91.06-.46.47-.64.46-.68-.73-3.5-28.15-54.94-30.98-64.47,2.82-1.23,7.23-4.79,10.02-4.56Z"/>
          <path class="cls-7" d="M218.8,315.73c-7.2-1.95-7.13.33-3.87,1.82,2.37,1.09,23.21,7.11,30.07,9.57,12.65,4.54,24.96,10.13,37.82,14.12l.68,1.14-2.73,8.66q-36.11-7.63-72.22-15.26c-1.67-.41-.73,1.38-2.05,3.19-.68-.36.39-2.81-1.82-2.28,1.53-7.25,3.93-14,6.38-20.96,1.4-.07,2.28-1.74,2.51-1.82.39-.15,6.44,1.16,5.24,1.82Z"/>
          <path class="cls-6" d="M487.63,426c8.06,3.83,41.9,20.47,47.84,20.96,1.05.09,1.08-1.1,2.73.46-3.42,7.33-7.32,14.25-11.85,20.96-2.46-.63-1.73-1.3-1.82-1.37l1.14-1.82q-30.41-19.59-60.83-39.19c.72-1.07,4.12-8.98,4.78-9.11,5.97,3.08,11.93,6.23,18,9.11Z"/>
          <path class="cls-10" d="M278.94,390.91c-10.92,3.2-67.46,11.56-70.85,12.76-2.33.83-1.52.87-.68,3.19-2.16-.38-.79-4.29-2.73-.46-1.42-6.56-2.18-12.91-2.73-19.59,7.31.11,14.58-.58,21.87-.91,18-.83,36.01-1.5,53.99-2.73,1.12.56.91,6.37,1.14,7.75Z"/>
          <path class="cls-21" d="M420.19,284.29c.12.06.98.66,2.28,1.37,2.74,1.48,5.54,2.93,8.2,4.56,1.91,1.16,2.15.83,2.28.91,2.04,1.31,8.24,6.3,10.48,8.2.83.71,2.17,1.72,2.28,1.82,3.85,3.52,7.58,7.84,10.94,11.85.96,1.15,1.72,1.7,1.82,1.82.83,1.04,5.15,7.02,5.92,8.2.25.38-.02,2.23,1.82,1.82-.59,2.35,4.39,8.62,5.92,12.3.16.38-.43,1.86,1.37,1.82-.92,2.59,1.61,7.66,2.73,10.48-.38,3.03.88,2.13.91,2.28.14.65.36,9.89,1.14,13.21,6.82-.08,13.7-.13,20.5-.46,15.05-.71,33.48-3.67,47.84-4.1,4.32-.13,6.33-.82,6.61,2.28-.04.04-.28.8-.68.91-3.55,1.02-62.27,3.66-73.81,5.01v11.85c5.62.84,42.29,2.97,44.2,4.1.41.24.19.76.23,1.14l-44.88-2.05-.91,8.66c23.79,5.99,48.16,8.8,72.22,13.44.25,3.13-1.4,2.37-5.24,2.05-14.63-1.21-50.91-9.09-67.44-12.76l-2.51,7.52c22.28,9.24,46.55,14.88,69.71,22.33-.59.42-.84,1.91-1.14,2.05-3.31,1.51-61.16-19.88-69.49-20.73l-3.19,9.11c6.28,3.17,12.79,5.86,19.14,8.89l-1.82,1.82c-6.07-2.89-12.03-6.03-18-9.11-.66.13-4.06,8.04-4.78,9.11-.06.09-.57.68-1.37,1.82-1.87,2.67-4.26,5.72-6.38,8.2-.06.07-.49.39-1.37,1.37-2.5,2.79-5.44,5.23-8.2,7.75-2.32,2.12-1.71,2.18-1.82,2.28-5.66,4.86-10.9,7.82-17.31,11.39-.91.51-1.99.62-1.82,1.82-2.8-.23-7.2,3.33-10.02,4.56-.7.3-1.51.59-2.28.91-.93.39-6,1.38-8.43,2.28-.9.74-.65,1.06-.68,2.05-.08,2.77,14.33,45.66,16.4,52.85,1.24,4.29,3.73,12.42,3.19,15.26-1.89-1.6-8.21-20.8-9.57-24.83-4.84-14.36-8.91-29.09-12.76-43.74-.88-.82-7.21,1.29-8.89,1.14l-.68,1.14c1.86,11.39,4.31,22.75,5.92,34.17.6,4.29,5.14,34.08,4.1,35.54-1.42,2-2.45-1.21-2.73-2.28-2.31-8.67-6.64-52.77-10.71-67.66l-7.52.68c-.98,9.65-2.59,67.25-3.65,70.62-.46,1.48-1.9,1.64-2.28,0-.79-3.44,1.72-60.94,1.37-70.62-2.21-.21-4.42-.58-6.61-.68-4.31,23.01-5.85,46.88-12.53,69.49q4.1-34.63,8.2-69.26c-.25-.75-7.21-1.4-7.75-.91-3.94,22.46-8.25,44.84-13.67,66.98-5.42,8.99,3.18-24.04,4.56-31.9,2.07-11.8,3.37-23.74,5.47-35.54l-.68-1.14c-1.92-.21-3.89-.71-5.7-1.37-.86-.31-1.85-.59-2.73-.91-1.28-.46-8.68-3.77-9.11-3.42-8.56,22.03-17.24,44.1-28.48,64.93,6.88-22.52,18.03-43.56,25.74-65.84-.06-.63-6.87-4.3-8.43-5.24-.04-.03-.43.61-.68.46-.75-.46-1.58-.92-2.28-1.37-1.68-1.07-11.66-9.22-12.53-9.11l-43.97,48.07c-2.51,2.1-3.33,4.84-5.47,2.96,14.75-18.58,31.34-35.63,47.84-52.63l-10.25-10.25c-2.36,1.96-36.09,32.94-37.13,30.76,10.9-11.94,23.82-21.79,36-32.35l-6.15-8.43c-10.45,3.8-54.19,33.69-57.41,34.63-.82.24-2.3.6-2.51-.68-.56-3.43,53.08-31.79,58.78-36.45l-3.87-7.06c-17.74,6.11-44.31,21.22-60.14,26.88-4.26,1.52-5.19,2.54-5.7-.23q32.24-14.47,64.47-28.93c.77-1.26-2.85-7.98-3.42-9.57-.06-.16.89-1.99-1.37-2.73,2.01-1.53-.19-5.16-.46-7.29-.15-1.2-.26-2.46-.46-3.65-.22-1.37-.02-7.19-1.14-7.75-17.98,1.24-35.99,1.91-53.99,2.73.07-.5-.22-1.58.23-1.82,2.37-1.29,47.05-3.37,53.77-4.1l.68-11.62c-14.79-1.19-29.62-2.46-44.43-3.42-3.61-.23-29.71-.54-30.3-2.05-.22-.55.54-1.77.68-2.51q36.91,2.51,73.81,5.01,1.03-5.81,2.05-11.62c-9.59-3.68-70.5-13.03-73.81-14.81,1.32-1.81.39-3.6,2.05-3.19q36.11,7.63,72.22,15.26l2.73-8.66-.68-1.14c-12.86-4-25.17-9.58-37.82-14.12-6.86-2.46-27.7-8.48-30.07-9.57-3.26-1.49-3.33-3.78,3.87-1.82,17.26,4.68,47.21,17.59,65.38,24.15.99-3.12,2.42-5.97,3.87-8.89.25-.51-.61-.84-.46-1.14.15-.3,1.71-.29,1.37-1.37l5.01-7.97-.68-1.59c-7.68-5.15-58.15-36.1-60.6-38.73-1.65-1.77-1.02-1.11-.68-2.28l.91-.46c18,9.8,43.31,29.4,62.2,40.55l6.61-8.43c-19.48-14.66-38.1-30.48-56.5-46.48,1.28-1.91,1.96-.65,3.42.23,6.69,4.05,42.71,36.93,54.68,44.65.52-.04,4.64-5.59,7.06-7.75,1.3-1.16,1.72-1.74,1.82-1.82,3.59-3.06,9.18-7.15,13.21-9.57,1.9-1.14,2.59-1.74,2.73-1.82.44-.25,7.54-2.66,9.34-3.65.9-.49.62-1.33.68-1.37.58-.34,2.84,1.15,2.73-.91l10.71-2.73.23-1.14c-6.21-23.77-12.36-47.65-15.95-71.99q9.11,35.77,18.23,71.54l1.14.68,7.29-1.37c1-.68.32-5.4.23-6.61-.74-9.44-10.14-64.19-8.66-67.89.03-.07,1.13-.72,1.37-.46q5.24,36.45,10.48,72.9c.99,2.57,6.51.23,8.89.68l2.05-75.64c2.05,20.82-.21,52.81,1.37,75.41,2.65.35,5.35.21,7.97.68,2.66-11.95,6.07-70.02,7.06-73.59.38-1.36.8-2.13,2.28-1.37q-2.73,37.13-5.47,74.27c.25,1.21,7.01,3.53,8.2.46,1.34-3.45,11.12-62.42,12.76-72.9h.91c1.88,3.31-9.24,66.46-11.39,75.18l7.52,2.51,1.59-2.05c4.44-14.29,14.45-59.77,17.77-68.35,2.75-7.09,2.19-.49,1.37,4.1-2.52,14.17-13.04,49.42-16.86,66.52l.23,1.14c.26.42,6.77,2.56,7.97,3.19Z"/>
          <path class="cls-8" d="M414.27,466.09c7.32,16.91,14.63,34.04,23.24,50.35,2.58,4.89,8.1,15.84,9.57,13.9-.06.46-.11.94.46.91-7.34,3.15-14.6,7.18-22.55,8.2-.41-.12-.16-.85-.23-.91.54-2.84-1.95-10.97-3.19-15.26-2.08-7.2-16.48-50.09-16.4-52.85.03-.99-.22-1.31.68-2.05,2.43-.9,7.5-1.89,8.43-2.28Z"/>
          <path class="cls-21" d="M348.66,468.37c-3.85,13.36-6.92,27.02-10.94,40.32-1.02,3.37-8.34,28.48-9.8,28.93-1.99.62-1.34-2.29-1.14-3.42,1.47-8.26,16.88-51.17,19.14-66.75.88.32,1.87.6,2.73.91Z"/>
          <path class="cls-21" d="M324.96,458.35c-10.16,16.28-26.7,45.59-37.36,59.69-3.02.25-1.14-2.4-.46-3.87,3.25-7.02,29.3-44.33,35.54-57.18.69.44,1.53.91,2.28,1.37Z"/>
          <path class="cls-21" d="M278.94,390.91c.2,1.19.31,2.45.46,3.65-9.62.45-68.39,12.93-71.99,12.3-.84-2.32-1.65-2.36.68-3.19,3.39-1.2,59.93-9.56,70.85-12.76Z"/>
          <path class="cls-21" d="M279.86,401.85c2.26.75,1.31,2.58,1.37,2.73-19.7,5.22-38.8,13.25-58.55,18.23-11.18,2.82-13.03,1.26-4.56-1.82,8.8-3.2,58.43-16.73,61.74-19.14Z"/>
          <path class="cls-21" d="M328.15,287.03c-.14.08-.83.68-2.73,1.82-6.08-11.15-36.5-56.81-38.73-62.2-.4-.96-.81-1.62.46-2.05.08.07.53-.35,1.82,1.14,5.05,5.81,30.5,49.81,39.19,61.28Z"/>
          <path class="cls-21" d="M340.91,281.1c.1,2.06-2.16.57-2.73.91-8.35-23.31-16.32-46.77-25.06-69.94l1.14-1.14c10.42,22.77,18.12,46.66,26.66,70.17Z"/>
          <path class="cls-21" d="M535.47,446.96c-5.94-.49-39.78-17.12-47.84-20.96l1.82-1.82c11.01,5.25,42.02,18.28,44.43,19.59,1.6.87,3.49,1.34,1.59,3.19Z"/>
          <path class="cls-21" d="M312.21,298.42c-.1.08-.52.66-1.82,1.82q-25.29-27-50.58-53.99l2.05-1.59q25.17,26.88,50.35,53.77Z"/>
          <path class="cls-20" d="M232.92,277.46l-.91.46c.07-.23-.03-.62,0-.91.35.17.56.26.91.46Z"/>
          <path class="cls-21" d="M450.72,213.21c-.03.15.79.61,0,2.96-1.96,5.86-9.76,21.94-13.21,30.53-5.19,12.9-9.73,26.1-15.04,38.96-1.3-.7-2.16-1.31-2.28-1.37,7.91-19.63,15.02-39.7,23.69-59.01,1.64-3.65,5.13-11.52,6.83-12.07Z"/>
          <path class="cls-21" d="M477.15,351.73c-.03-.15-1.29.75-.91-2.28,10.66-1.64,67.22-16.28,70.85-16.4,3.09-.11,3.07,2.31,1.82,3.19-3,2.11-62.99,13.34-71.76,15.49Z"/>
          <text/>
          <path class="cls-21" d="M533.19,291.13c-22.61,10.55-44.01,23.83-66.98,33.72-1.85.41-1.57-1.44-1.82-1.82,14.72-5.68,55.27-29.52,64.02-32.81,2.85-1.07,3.34-2.07,4.78.91Z"/>
          <path class="cls-21" d="M445.71,301.15c-.11-.1-1.44-1.12-2.28-1.82,7.14-7.48,48.46-54.36,52.85-56.04.16.78,1.46,1.17,1.37,2.05-.14,1.28-15.89,15.72-18.23,18.23-11.45,12.31-22.45,25.11-33.72,37.59Z"/>
          <path class="cls-21" d="M458.47,314.82c-.1-.12-.86-.67-1.82-1.82q31.78-20.73,63.56-41.46c1.11,1.58,2.04,2.12.91,2.73l-62.65,40.55Z"/>
          <path class="cls-21" d="M432.95,291.13c-.13-.08-.37.25-2.28-.91,11.15-20.66,22.9-41.11,36.68-60.14-10.24,20.96-23.56,40.36-34.4,61.06Z"/>
          <path class="cls-21" d="M495.83,499.36c-3.32-1.42-43.1-45.88-50.12-51.94.11-.09-.5-.16,1.82-2.28,8.34,10.54,43.39,44.19,47.84,50.35,1.69,2.33,2.24,1.91.46,3.87Z"/>
          <path class="cls-21" d="M464.85,426q30.41,19.59,60.83,39.19l-1.14,1.82c-4.47-2.99-13.55-7.66-19.36-11.39-14.05-9-27.46-19.05-41.69-27.79.8-1.15,1.3-1.73,1.37-1.82Z"/>
          <path class="cls-21" d="M457.1,436.02q26.88,22.67,53.77,45.34c-20.13-12.14-37.22-28.85-55.13-43.97.88-.98,1.3-1.29,1.37-1.37Z"/>
          <path class="cls-21" d="M288.97,328.49c.34,1.08-1.21,1.07-1.37,1.37-8.84-4.62-61.17-29.29-64.02-31.44-1.14-.86-2.1-1.18-1.14-2.51.63-.87,10.82,4.23,12.99,5.24,18.12,8.49,35.39,18.88,53.54,27.34Z"/>
          <path class="cls-21" d="M467.58,519.4c-13.56-19.67-27.9-38.79-41.01-58.78-.17-1.21.91-1.32,1.82-1.82,10.61,16.91,27.26,36.82,37.36,53.08,3.67,5.9,5.22,7.24,1.82,7.52Z"/>
          <path class="cls-21" d="M416.55,465.18c2.84,9.54,30.25,60.97,30.98,64.47,0,.05-.39.22-.46.68-1.47,1.94-6.99-9.01-9.57-13.9-8.61-16.31-15.92-33.44-23.24-50.35.77-.33,1.58-.61,2.28-.91Z"/>
        </g>
      </g>
    </g>
  </g>
</svg>